<svg width="19" height="20" viewBox="0 0 19 20" fill="none" xmlns="http://www.w3.org/2000/svg">
<mask id="path-1-inside-1_2332_10288" fill="white">
<path d="M0.5 9.73081C0.5 8.03877 0.5 7.19275 0.852879 6.44909C1.20576 5.70544 1.86847 5.15485 3.1939 4.05369L4.47961 2.98552C6.8753 0.995172 8.07315 0 9.5 0C10.9268 0 12.1247 0.995172 14.5204 2.98552L15.8061 4.05369C17.1315 5.15485 17.7942 5.70544 18.1471 6.44909C18.5 7.19275 18.5 8.03877 18.5 9.73081V15.0152C18.5 17.3651 18.5 18.54 17.7468 19.27C16.9937 20 15.7815 20 13.3571 20H5.64286C3.21849 20 2.00631 20 1.25315 19.27C0.5 18.54 0.5 17.3651 0.5 15.0152V9.73081Z"/>
</mask>
<path d="M11.9143 20C11.9143 20.4418 12.2725 20.8 12.7143 20.8C13.1561 20.8 13.5143 20.4418 13.5143 20H11.9143ZM5.48571 20C5.48571 20.4418 5.84389 20.8 6.28571 20.8C6.72754 20.8 7.08571 20.4418 7.08571 20H5.48571ZM7.57143 13.3228H11.4286V11.7228H7.57143V13.3228ZM11.9143 13.769V20H13.5143V13.769H11.9143ZM5.48571 13.769V20H7.08571V13.769H5.48571ZM11.4286 13.3228C11.7205 13.3228 11.9143 13.5459 11.9143 13.769H13.5143C13.5143 12.6156 12.5568 11.7228 11.4286 11.7228V13.3228ZM7.57143 11.7228C6.44324 11.7228 5.48571 12.6156 5.48571 13.769H7.08571C7.08571 13.5459 7.27945 13.3228 7.57143 13.3228V11.7228ZM4.47961 2.98552L5.50206 4.2162L4.47961 2.98552ZM14.5204 2.98552L13.4979 4.2162L14.5204 2.98552ZM15.8061 4.05369L16.8286 2.82301V2.823L15.8061 4.05369ZM3.1939 4.05369L2.17144 2.823H2.17144L3.1939 4.05369ZM16.9 9.73081V15.0152H20.1V9.73081H16.9ZM13.3571 18.4H5.64286V21.6H13.3571V18.4ZM2.1 15.0152V9.73081H-1.1V15.0152H2.1ZM4.21635 5.28438L5.50206 4.2162L3.45715 1.75483L2.17144 2.823L4.21635 5.28438ZM13.4979 4.2162L14.7837 5.28438L16.8286 2.823L15.5428 1.75483L13.4979 4.2162ZM5.50206 4.2162C6.73127 3.19498 7.54169 2.52543 8.21576 2.09391C8.85131 1.68706 9.20563 1.6 9.5 1.6V-1.6C8.36752 -1.6 7.4095 -1.18948 6.49048 -0.601155C5.61 -0.0375024 4.62364 0.785712 3.45715 1.75483L5.50206 4.2162ZM15.5428 1.75483C14.3764 0.785712 13.39 -0.0375026 12.5095 -0.601155C11.5905 -1.18948 10.6325 -1.6 9.5 -1.6V1.6C9.79437 1.6 10.1487 1.68706 10.7842 2.09391C11.4583 2.52543 12.2687 3.19498 13.4979 4.2162L15.5428 1.75483ZM5.64286 18.4C4.3868 18.4 3.60083 18.3968 3.02806 18.3222C2.49633 18.2529 2.39476 18.1483 2.36673 18.1211L0.139575 20.4189C0.864705 21.1217 1.74581 21.3821 2.61455 21.4953C3.44225 21.6032 4.47455 21.6 5.64286 21.6V18.4ZM-1.1 15.0152C-1.1 16.1435 -1.10361 17.1557 -0.990682 17.9699C-0.870638 18.8353 -0.592539 19.7093 0.139575 20.4189L2.36673 18.1211C2.34569 18.1007 2.24722 18.0222 2.17897 17.5302C2.10361 16.9869 2.1 16.2367 2.1 15.0152H-1.1ZM16.9 15.0152C16.9 16.2367 16.8964 16.9869 16.821 17.5302C16.7528 18.0222 16.6543 18.1007 16.6333 18.1211L18.8604 20.4189C19.5925 19.7093 19.8706 18.8353 19.9907 17.9699C20.1036 17.1557 20.1 16.1435 20.1 15.0152H16.9ZM13.3571 21.6C14.5254 21.6 15.5578 21.6032 16.3855 21.4953C17.2542 21.3821 18.1353 21.1217 18.8604 20.4189L16.6333 18.1211C16.6052 18.1483 16.5037 18.2529 15.9719 18.3222C15.3992 18.3968 14.6132 18.4 13.3571 18.4V21.6ZM20.1 9.73081C20.1 8.1885 20.136 6.90824 19.5926 5.76317L16.7016 7.13502C16.864 7.47727 16.9 7.88905 16.9 9.73081H20.1ZM14.7837 5.28438C16.225 6.48186 16.5358 6.78568 16.7016 7.13502L19.5926 5.76317C19.0526 4.62519 18.038 3.82784 16.8286 2.82301L14.7837 5.28438ZM2.1 9.73081C2.1 7.88905 2.13599 7.47727 2.29839 7.13502L-0.592635 5.76317C-1.13599 6.90824 -1.1 8.1885 -1.1 9.73081H2.1ZM2.17144 2.823C0.961959 3.82784 -0.0526432 4.62519 -0.592635 5.76317L2.29839 7.13502C2.46416 6.78568 2.77498 6.48187 4.21635 5.28438L2.17144 2.823Z" fill="#2F66F6" mask="url(#path-1-inside-1_2332_10288)"/>
</svg>
