<svg width="23" height="21" viewBox="0 0 23 21" fill="none" xmlns="http://www.w3.org/2000/svg">
<path d="M9.34799 4.34569C10.2599 2.11523 10.7159 1 11.5 1C12.2841 1 12.7401 2.11523 13.652 4.34569L13.6945 4.44955C14.2097 5.70965 14.4673 6.3397 14.9923 6.72265C15.5173 7.1056 16.2065 7.16616 17.5848 7.28726L17.834 7.30916C20.0899 7.50737 21.2178 7.60647 21.4592 8.31051C21.7005 9.01455 20.8629 9.76221 19.1876 11.2576L18.6284 11.7566C17.7804 12.5136 17.3563 12.8921 17.1587 13.3881C17.1218 13.4807 17.0912 13.5755 17.067 13.6719C16.937 14.1891 17.0612 14.7381 17.3096 15.8363L17.3869 16.1781C17.8433 18.1962 18.0715 19.2053 17.673 19.6405C17.5241 19.8032 17.3306 19.9203 17.1157 19.9778C16.5404 20.1318 15.7237 19.4789 14.0902 18.173C13.0176 17.3156 12.4813 16.8868 11.8656 16.7904C11.6234 16.7524 11.3766 16.7524 11.1344 16.7904C10.5187 16.8868 9.98238 17.3156 8.90979 18.173C7.27633 19.4789 6.45961 20.1318 5.88434 19.9778C5.66938 19.9203 5.47587 19.8032 5.32698 19.6405C4.92854 19.2053 5.15674 18.1962 5.61314 16.1781L5.69045 15.8363C5.93879 14.7381 6.06296 14.1891 5.93305 13.6719C5.90881 13.5755 5.87817 13.4807 5.8413 13.3881C5.64366 12.8921 5.21963 12.5136 4.37156 11.7566L3.81243 11.2576C2.13713 9.76222 1.29948 9.01455 1.54083 8.31051C1.78218 7.60647 2.91011 7.50737 5.16598 7.30916L5.41516 7.28726C6.79352 7.16616 7.4827 7.1056 8.00771 6.72265C8.53272 6.3397 8.79032 5.70965 9.30553 4.44955L9.34799 4.34569Z" stroke="#696F8C" stroke-width="1.6"/>
</svg>
