<svg width="23" height="22" viewBox="0 0 23 22" fill="none" xmlns="http://www.w3.org/2000/svg">
<path d="M9.32684 11.482L8.6612 11.0382L9.32684 11.482ZM5.27881 16.1118C5.03372 16.4794 5.13306 16.9761 5.50069 17.2212C5.86831 17.4663 6.365 17.3669 6.61009 16.9993L5.27881 16.1118ZM17.7212 8.11043C17.9663 7.7428 17.8669 7.24611 17.4993 7.00103C17.1317 6.75594 16.635 6.85528 16.3899 7.22291L17.7212 8.11043ZM13.6732 12.7403L14.3388 13.184L13.6732 12.7403ZM11.7549 12.6208L12.4704 12.2631L11.7549 12.6208ZM11.2451 11.6014L11.9607 11.2436L11.2451 11.6014ZM8.6612 11.0382L5.27881 16.1118L6.61009 16.9993L9.99248 11.9257L8.6612 11.0382ZM16.3899 7.22291L13.0075 12.2965L14.3388 13.184L17.7212 8.11043L16.3899 7.22291ZM12.4704 12.2631L11.9607 11.2436L10.5296 11.9592L11.0393 12.9786L12.4704 12.2631ZM13.0075 12.2965C12.875 12.4953 12.5772 12.4767 12.4704 12.2631L11.0393 12.9786C11.6956 14.2911 13.5248 14.405 14.3388 13.184L13.0075 12.2965ZM9.99248 11.9257C10.125 11.727 10.4228 11.7455 10.5296 11.9592L11.9607 11.2436C11.3044 9.93115 9.47516 9.81727 8.6612 11.0382L9.99248 11.9257ZM5.94444 1.8H17.0556V0.2H5.94444V1.8ZM20.7 5.44444V16.5556H22.3V5.44444H20.7ZM17.0556 20.2H5.94444V21.8H17.0556V20.2ZM2.3 16.5556V5.44444H0.7V16.5556H2.3ZM5.94444 20.2C4.87426 20.2 4.15211 20.1983 3.61266 20.1258C3.09623 20.0563 2.86858 19.9355 2.71656 19.7834L1.58519 20.9148C2.08404 21.4137 2.70561 21.6182 3.39946 21.7115C4.0703 21.8017 4.91949 21.8 5.94444 21.8V20.2ZM0.7 16.5556C0.7 17.5805 0.698301 18.4297 0.788493 19.1005C0.881779 19.7944 1.08634 20.416 1.58519 20.9148L2.71656 19.7834C2.56454 19.6314 2.44366 19.4038 2.37423 18.8873C2.3017 18.3479 2.3 17.6257 2.3 16.5556H0.7ZM20.7 16.5556C20.7 17.6257 20.6983 18.3479 20.6258 18.8873C20.5563 19.4038 20.4355 19.6314 20.2834 19.7834L21.4148 20.9148C21.9137 20.416 22.1182 19.7944 22.2115 19.1005C22.3017 18.4297 22.3 17.5805 22.3 16.5556H20.7ZM17.0556 21.8C18.0805 21.8 18.9297 21.8017 19.6005 21.7115C20.2944 21.6182 20.916 21.4137 21.4148 20.9148L20.2834 19.7834C20.1314 19.9355 19.9038 20.0563 19.3873 20.1258C18.8479 20.1983 18.1257 20.2 17.0556 20.2V21.8ZM17.0556 1.8C18.1257 1.8 18.8479 1.8017 19.3873 1.87423C19.9038 1.94366 20.1314 2.06454 20.2834 2.21656L21.4148 1.08519C20.916 0.586336 20.2944 0.381779 19.6005 0.288493C18.9297 0.198301 18.0805 0.2 17.0556 0.2V1.8ZM22.3 5.44444C22.3 4.41949 22.3017 3.5703 22.2115 2.89946C22.1182 2.20561 21.9137 1.58404 21.4148 1.08519L20.2834 2.21656C20.4355 2.36858 20.5563 2.59623 20.6258 3.11266C20.6983 3.65211 20.7 4.37426 20.7 5.44444H22.3ZM5.94444 0.2C4.91949 0.2 4.0703 0.198301 3.39946 0.288493C2.70561 0.381779 2.08404 0.586336 1.58519 1.08519L2.71656 2.21656C2.86858 2.06454 3.09623 1.94366 3.61266 1.87423C4.15211 1.8017 4.87426 1.8 5.94444 1.8V0.2ZM2.3 5.44444C2.3 4.37426 2.3017 3.65211 2.37423 3.11266C2.44366 2.59623 2.56454 2.36858 2.71656 2.21656L1.58519 1.08519C1.08634 1.58404 0.881779 2.20561 0.788493 2.89946C0.698301 3.5703 0.7 4.41949 0.7 5.44444H2.3Z" fill="#696F8C"/>
</svg>
