<svg width="21" height="20" viewBox="0 0 21 20" fill="none" xmlns="http://www.w3.org/2000/svg">
<path d="M1.5 3.4V3.4C1.5 2.07452 2.57452 0.999999 3.9 0.999999L17.6143 0.999999C17.7871 0.999999 17.8735 0.999999 17.9438 1.02112C18.1047 1.06944 18.2306 1.19531 18.2789 1.3562C18.3 1.42655 18.3 1.51294 18.3 1.68571V1.68571C18.3 2.72238 18.3 3.24071 18.1733 3.6628C17.8834 4.62813 17.1281 5.38338 16.1628 5.67325C15.7407 5.8 15.2224 5.8 14.1857 5.8H14.1M1.5 3.4V3.4C1.5 4.72548 2.57452 5.8 3.9 5.8L17.5 5.8C18.4428 5.8 18.9142 5.8 19.2071 6.09289C19.5 6.38579 19.5 6.85719 19.5 7.8L19.5 10.6M1.5 3.4L1.5 15C1.5 16.8856 1.5 17.8284 2.08579 18.4142C2.67157 19 3.61438 19 5.5 19L17.5 19C18.4428 19 18.9142 19 19.2071 18.7071C19.5 18.4142 19.5 17.9428 19.5 17V15.4M19.5 15.4H16.7C15.7572 15.4 15.2858 15.4 14.9929 15.1071C14.7 14.8142 14.7 14.3428 14.7 13.4V12.6C14.7 11.6572 14.7 11.1858 14.9929 10.8929C15.2858 10.6 15.7572 10.6 16.7 10.6H19.5M19.5 15.4V10.6" stroke="#696F8C" stroke-width="1.3"/>
</svg>
